<svg width="19" height="9" viewBox="0 0 19 9" fill="none" xmlns="http://www.w3.org/2000/svg">
<path d="M8.39648 5.92969C8.39648 6.23047 8.35742 6.50195 8.2793 6.74414C8.20508 6.98242 8.10547 7.19336 7.98047 7.37695C7.85547 7.56055 7.70898 7.7168 7.54102 7.8457C7.37305 7.97461 7.19922 8.08008 7.01953 8.16211C6.83984 8.24414 6.65625 8.30469 6.46875 8.34375C6.28516 8.38281 6.11133 8.40234 5.94727 8.40234H0.0703125V6.87891H5.94727C6.24023 6.87891 6.4668 6.79297 6.62695 6.62109C6.79102 6.44922 6.87305 6.21875 6.87305 5.92969C6.87305 5.78906 6.85156 5.66016 6.80859 5.54297C6.76562 5.42578 6.70312 5.32422 6.62109 5.23828C6.54297 5.15234 6.44531 5.08594 6.32812 5.03906C6.21484 4.99219 6.08789 4.96875 5.94727 4.96875H2.44336C2.19727 4.96875 1.93164 4.92578 1.64648 4.83984C1.36133 4.75 1.0957 4.60742 0.849609 4.41211C0.607422 4.2168 0.404297 3.96094 0.240234 3.64453C0.0800781 3.32812 0 2.94141 0 2.48438C0 2.02734 0.0800781 1.64258 0.240234 1.33008C0.404297 1.01367 0.607422 0.757812 0.849609 0.5625C1.0957 0.363281 1.36133 0.220703 1.64648 0.134766C1.93164 0.0449219 2.19727 0 2.44336 0H7.62891V1.52344H2.44336C2.1543 1.52344 1.92773 1.61133 1.76367 1.78711C1.60352 1.96289 1.52344 2.19531 1.52344 2.48438C1.52344 2.77734 1.60352 3.00977 1.76367 3.18164C1.92773 3.34961 2.1543 3.43359 2.44336 3.43359H5.94727H5.95898C6.12305 3.4375 6.29688 3.46094 6.48047 3.50391C6.66406 3.54297 6.8457 3.60547 7.02539 3.69141C7.20898 3.77734 7.38281 3.88672 7.54688 4.01953C7.71094 4.14844 7.85547 4.30469 7.98047 4.48828C8.10938 4.67188 8.21094 4.88281 8.28516 5.12109C8.35938 5.35938 8.39648 5.62891 8.39648 5.92969ZM18.0352 3.51562C18.0352 3.86328 17.9922 4.17383 17.9062 4.44727C17.8203 4.7207 17.7031 4.96289 17.5547 5.17383C17.4102 5.38086 17.2422 5.55859 17.0508 5.70703C16.8594 5.85547 16.6582 5.97656 16.4473 6.07031C16.2402 6.16406 16.0293 6.23242 15.8145 6.27539C15.6035 6.31836 15.4043 6.33984 15.2168 6.33984H11.7715V4.81641H15.2168C15.4121 4.80078 15.5879 4.76172 15.7441 4.69922C15.9043 4.63281 16.041 4.54492 16.1543 4.43555C16.2676 4.32617 16.3555 4.19531 16.418 4.04297C16.4805 3.88672 16.5117 3.71094 16.5117 3.51562V2.82422C16.4922 2.63281 16.4512 2.45703 16.3887 2.29688C16.3262 2.13672 16.2402 2 16.1309 1.88672C16.0254 1.77344 15.8965 1.68555 15.7441 1.62305C15.5918 1.55664 15.416 1.52344 15.2168 1.52344H11.7832C11.5801 1.52344 11.4258 1.57617 11.3203 1.68164C11.2148 1.78711 11.1621 1.93945 11.1621 2.13867V8.40234H9.63867V2.13867C9.63867 1.74805 9.70898 1.41602 9.84961 1.14258C9.99414 0.869141 10.1719 0.648438 10.3828 0.480469C10.5977 0.3125 10.8301 0.191406 11.0801 0.117188C11.3301 0.0390625 11.5605 0 11.7715 0H15.2168C15.5605 0 15.8691 0.0449219 16.1426 0.134766C16.416 0.220703 16.6562 0.337891 16.8633 0.486328C17.0742 0.630859 17.252 0.798828 17.3965 0.990234C17.5449 1.18164 17.666 1.38281 17.7598 1.59375C17.8574 1.80078 17.9277 2.01172 17.9707 2.22656C18.0137 2.4375 18.0352 2.63672 18.0352 2.82422V3.51562Z" fill="black"/>
</svg>
